<?xml version="1.0" standalone="no"?>
<!DOCTYPE svg PUBLIC "-//W3C//DTD SVG 20010904//EN"
 "http://www.w3.org/TR/2001/REC-SVG-20010904/DTD/svg10.dtd">
<svg version="1.0" xmlns="http://www.w3.org/2000/svg"
 width="1024.000000pt" height="1024.000000pt" viewBox="0 0 1024.000000 1024.000000"
 preserveAspectRatio="xMidYMid meet">
<metadata>
Created by potrace 1.16, written by Peter Selinger 2001-2019
</metadata>
<g transform="translate(0.000000,1024.000000) scale(0.100000,-0.100000)"
fill="#000000" stroke="none">
<path d="M2130 6176 c-77 -17 -154 -46 -232 -89 -57 -31 -64 -40 -52 -71 8
-22 15 -20 73 15 143 89 360 121 553 81 101 -21 257 -81 248 -96 -3 -4 -54 -8
-115 -7 -82 1 -130 -3 -190 -19 -85 -22 -206 -74 -267 -116 l-36 -25 -49 24
c-44 23 -50 23 -70 10 -31 -21 -29 -27 17 -48 22 -10 40 -21 40 -24 0 -3 -25
-31 -56 -62 -47 -48 -54 -60 -49 -82 4 -15 11 -27 15 -27 5 0 37 29 73 65 36
36 74 65 85 65 51 0 402 -267 402 -306 0 -8 23 -25 50 -39 45 -23 50 -29 50
-58 0 -30 -97 -467 -105 -476 -8 -7 -154 121 -246 215 -115 120 -201 226 -287
358 -54 81 -63 101 -54 115 23 31 24 42 6 56 -15 10 -22 11 -33 2 -11 -9 -16
-8 -25 7 -35 60 -76 91 -90 68 -3 -5 9 -38 26 -75 l31 -66 -46 -93 c-87 -176
-122 -339 -114 -532 4 -110 10 -146 36 -226 17 -52 44 -119 60 -147 16 -29 25
-55 21 -58 -5 -3 -47 32 -93 77 -84 82 -160 187 -196 270 -19 45 -86 116 -97
105 -4 -3 4 -32 16 -64 113 -283 327 -490 594 -572 52 -16 72 -18 82 -10 32
26 2 52 -94 80 -51 15 -106 74 -170 184 -70 119 -94 209 -100 365 -5 147 8
239 53 369 26 79 75 181 86 181 4 0 29 -35 57 -77 60 -94 184 -251 278 -352
51 -54 243 -223 282 -247 2 -1 -43 -207 -113 -511 -20 -86 -47 -120 -105 -129
-55 -9 -89 -36 -74 -61 9 -15 22 -17 85 -14 41 2 126 4 189 5 l115 1 0 25 c0
21 -8 27 -54 42 -29 10 -59 23 -67 29 -27 22 -29 7 144 765 53 234 71 288 80
239 12 -66 303 -1100 313 -1109 11 -12 122 -8 130 5 3 6 25 94 48 197 24 103
54 232 67 287 13 55 55 240 95 410 39 171 79 329 89 352 15 34 29 47 67 65 38
18 49 29 51 51 2 15 0 27 -5 27 -4 1 -78 1 -163 2 -130 0 -156 -2 -164 -15
-11 -17 16 -57 39 -57 7 0 24 -12 39 -26 42 -43 36 -95 -61 -514 -47 -206 -88
-377 -90 -379 -1 -2 -5 -2 -8 1 -5 5 -146 497 -254 883 l-28 100 -137 3 -138
3 -106 90 c-59 50 -151 120 -204 157 -54 36 -98 69 -98 72 0 15 171 91 249
111 71 18 104 21 205 17 105 -4 133 -9 209 -38 69 -25 97 -42 133 -79 54 -56
106 -132 140 -206 18 -39 31 -55 45 -55 31 0 34 27 8 83 -113 243 -352 433
-639 508 -99 26 -309 34 -400 15z"/>
<path d="M6782 6108 c-6 -24 -16 -77 -23 -118 -14 -85 -22 -101 -38 -71 -29
53 -128 67 -202 28 -84 -45 -139 -149 -139 -265 0 -100 45 -152 130 -152 51 0
98 20 129 54 33 35 45 33 38 -9 -5 -33 -4 -35 22 -35 l27 0 62 288 c34 158 62
295 62 305 0 12 -8 17 -29 17 -25 0 -30 -5 -39 -42z m-119 -200 c47 -25 62
-72 46 -148 -15 -69 -61 -134 -113 -159 -55 -27 -89 -26 -122 2 -24 21 -27 31
-27 83 2 93 57 199 118 224 29 13 73 12 98 -2z"/>
<path d="M8685 6138 c-2 -7 -14 -64 -26 -127 l-22 -114 -21 25 c-30 36 -58 48
-111 48 -125 0 -225 -127 -225 -286 0 -107 37 -154 123 -154 51 0 110 24 141
59 24 27 37 18 29 -19 -5 -28 -3 -30 24 -30 l29 0 27 138 c15 75 43 211 62
302 19 90 35 166 35 167 0 10 -61 1 -65 -9z m-104 -247 c25 -25 29 -37 29 -83
0 -104 -75 -209 -160 -223 -48 -8 -85 11 -101 53 -21 55 21 192 74 243 51 48
115 52 158 10z"/>
<path d="M7114 6095 c-22 -33 -15 -59 18 -63 18 -2 31 4 42 20 20 28 20 33 0
52 -22 23 -41 20 -60 -9z"/>
<path d="M3986 6081 c-12 -14 -186 -309 -285 -483 l-32 -58 35 0 c34 0 37 3
82 85 l48 85 107 0 107 0 11 -50 c6 -28 11 -59 11 -70 0 -37 12 -50 45 -50
l33 0 -9 38 c-4 21 -24 132 -44 248 -20 115 -38 221 -41 235 -6 33 -46 44 -68
20z m33 -153 c6 -46 14 -100 17 -120 l7 -38 -82 0 c-44 0 -81 3 -81 8 -1 11
114 232 121 232 3 0 11 -37 18 -82z"/>
<path d="M7440 6019 c-12 -22 -37 -49 -56 -61 -41 -24 -47 -53 -9 -46 19 4 25
1 25 -12 0 -9 -11 -72 -25 -140 -31 -154 -31 -175 0 -205 42 -43 155 -31 155
16 0 17 -4 19 -34 14 -43 -9 -73 1 -81 24 -4 14 17 130 50 279 5 20 11 22 66
22 62 0 62 0 72 44 1 5 -25 9 -58 10 -65 1 -65 1 -51 64 7 28 5 32 -13 32 -14
0 -27 -13 -41 -41z"/>
<path d="M4503 5955 c-86 -37 -153 -153 -153 -263 0 -108 54 -162 163 -162 65
0 117 21 117 49 0 28 -9 30 -48 14 -50 -21 -111 -12 -139 22 -49 56 -17 206
56 268 39 32 89 43 135 27 40 -13 56 -7 56 20 0 37 -122 54 -187 25z"/>
<path d="M4994 5946 c-64 -33 -109 -94 -130 -177 -38 -149 19 -239 151 -239
74 0 109 16 113 52 l3 26 -52 -15 c-106 -31 -167 17 -156 124 6 61 50 147 88
176 29 21 92 26 145 13 25 -6 32 -5 38 10 11 30 -18 48 -86 52 -52 3 -72 -1
-114 -22z"/>
<path d="M5580 5963 c-8 -3 -35 -24 -59 -47 l-43 -41 7 43 c6 40 6 42 -19 42
-13 0 -27 -3 -30 -8 -2 -4 -21 -88 -41 -187 -20 -99 -39 -190 -42 -203 -5 -21
-3 -23 28 -20 l33 3 28 122 c40 179 78 231 175 242 54 6 58 8 61 34 3 26 2 27
-40 26 -24 0 -50 -3 -58 -6z"/>
<path d="M5959 5947 c-89 -47 -145 -162 -137 -279 4 -52 9 -63 41 -96 33 -33
42 -36 102 -40 77 -5 150 17 160 49 10 30 1 33 -51 15 -81 -28 -139 -18 -170
29 -17 26 -23 79 -11 91 3 3 40 10 81 15 162 18 240 95 191 188 -27 54 -130
68 -206 28z m147 -51 c35 -55 -28 -109 -143 -122 -73 -8 -76 -3 -40 61 45 80
148 114 183 61z"/>
<path d="M7883 5950 c-48 -25 -83 -62 -116 -124 -30 -58 -32 -198 -2 -238 29
-40 74 -58 142 -57 82 1 127 19 131 52 4 32 8 31 -52 11 -98 -34 -176 3 -176
83 0 24 3 43 8 43 138 9 231 41 262 92 28 46 25 82 -9 120 -24 27 -36 32 -87
35 -46 3 -68 -1 -101 -17z m131 -43 c24 -17 24 -62 1 -87 -34 -38 -195 -69
-195 -37 1 25 47 92 79 114 38 26 88 30 115 10z"/>
<path d="M7066 5888 c-9 -40 -27 -127 -41 -193 -14 -66 -28 -128 -31 -137 -4
-15 1 -18 30 -18 20 0 36 2 36 3 0 7 81 382 86 400 4 14 -1 17 -30 17 l-35 0
-15 -72z"/>
<path d="M1583 5845 c-84 -101 -161 -271 -189 -413 -18 -92 -18 -112 0 -112 8
0 17 -11 20 -25 11 -41 22 -28 25 28 6 141 70 315 167 455 24 35 44 66 44 70
0 4 -9 13 -19 19 -17 11 -24 8 -48 -22z"/>
<path d="M5485 5448 c-11 -7 -69 -15 -130 -18 -109 -5 -110 -5 -110 -30 0 -21
5 -25 35 -28 19 -2 38 -7 43 -11 7 -7 -70 -289 -84 -305 -5 -6 -17 -2 -30 10
-17 15 -35 19 -93 17 -327 -7 -693 -434 -674 -787 7 -134 60 -206 152 -206 90
0 238 122 383 315 41 55 80 105 85 110 13 12 10 0 -36 -179 -43 -164 -44 -195
-13 -224 67 -63 194 8 303 168 46 67 86 150 80 166 -10 25 -31 15 -55 -29 -55
-96 -119 -163 -138 -143 -4 3 15 82 41 174 27 92 65 228 86 302 21 74 72 257
114 406 42 149 76 279 76 288 0 19 -8 20 -35 4z m-305 -438 c28 -28 29 -72 3
-155 -74 -234 -373 -605 -487 -605 -32 0 -49 46 -42 110 19 165 134 392 284
559 92 103 192 141 242 91z"/>
<path d="M8630 5305 c0 -22 4 -25 35 -25 l35 0 0 -100 c0 -100 0 -100 25 -100
24 0 24 1 27 98 l3 97 38 3 c32 3 37 7 37 28 0 24 -1 24 -100 24 l-100 0 0
-25z"/>
<path d="M8860 5205 l0 -125 25 0 c24 0 25 2 25 76 0 93 12 93 48 1 15 -37 31
-66 37 -64 5 2 23 36 39 75 17 40 34 72 39 72 4 0 7 -35 6 -77 -2 -75 -1 -78
20 -78 22 0 22 3 22 120 l0 120 -37 0 c-36 0 -39 -2 -59 -52 -11 -28 -24 -55
-27 -59 -4 -4 -19 21 -34 55 -26 60 -27 61 -65 61 l-39 0 0 -125z"/>
<path d="M7781 5220 l-84 -5 -30 -95 c-16 -52 -33 -100 -38 -106 -5 -7 -24
-15 -42 -18 -51 -10 -137 -54 -137 -70 0 -26 21 -29 81 -11 33 10 62 15 66 12
6 -7 -31 -130 -316 -1042 -26 -82 -48 -136 -61 -147 -11 -9 -45 -22 -75 -28
-55 -11 -81 -30 -72 -52 3 -10 65 -13 268 -13 l264 1 0 24 c0 20 -7 26 -40 33
-88 18 -114 28 -120 47 -6 18 98 355 116 374 5 6 16 3 26 -6 58 -51 185 -48
297 5 224 108 398 349 425 589 28 255 -83 369 -349 356 -55 -3 -100 -2 -100 1
0 3 9 35 20 71 11 36 20 68 20 71 0 12 -33 14 -119 9z m244 -224 c43 -18 64
-51 75 -117 33 -205 -144 -620 -305 -715 -92 -54 -195 -12 -195 81 0 14 41
152 91 308 50 155 102 317 115 359 22 68 28 79 52 84 15 3 32 7 37 9 26 9 99
4 130 -9z"/>
<path d="M4220 5081 c-5 -11 -10 -26 -10 -35 0 -25 -19 -28 -46 -7 -63 50
-154 47 -273 -9 -231 -109 -434 -364 -481 -607 -17 -88 -9 -220 16 -264 23
-40 75 -69 124 -69 49 0 144 47 216 108 60 50 196 210 243 285 13 21 25 36 28
33 3 -2 -12 -69 -32 -148 -44 -170 -49 -240 -20 -262 52 -40 180 7 260 96 65
72 146 207 143 237 -5 43 -25 33 -64 -31 -63 -105 -154 -190 -154 -145 0 15
53 206 115 417 101 342 115 394 111 407 -4 9 -29 13 -85 13 -69 0 -82 -3 -91
-19z m-97 -91 c14 -11 28 -33 31 -48 35 -157 -347 -702 -492 -702 -108 0 -47
284 113 525 22 33 71 92 108 132 101 107 182 138 240 93z"/>
<path d="M7162 5087 c-6 -6 -13 -24 -17 -40 -4 -15 -9 -27 -10 -27 -2 0 -26
14 -54 31 -44 28 -57 31 -99 26 -133 -16 -268 -91 -398 -221 -175 -175 -263
-377 -252 -579 6 -125 53 -187 141 -187 81 0 200 71 297 177 59 65 186 226
193 245 2 7 7 10 11 7 4 -4 -12 -73 -34 -154 -47 -171 -53 -224 -26 -254 41
-45 149 -15 235 65 88 81 191 243 178 278 -11 28 -26 18 -64 -41 -72 -115
-133 -177 -154 -156 -9 9 -12 -1 127 468 58 192 102 355 99 362 -6 18 -159 18
-173 0z m-98 -98 c52 -41 29 -152 -65 -319 -126 -222 -319 -429 -401 -430 -85
0 -73 180 24 373 145 289 341 456 442 376z"/>
<path d="M5985 5079 c-127 -44 -223 -107 -310 -202 -116 -127 -185 -298 -185
-458 0 -210 105 -330 289 -329 136 1 294 117 394 291 58 100 16 124 -48 28
-129 -196 -321 -257 -389 -124 -28 55 -27 188 3 310 44 179 168 388 255 429
64 30 116 -18 116 -109 0 -25 8 -44 26 -62 22 -22 32 -25 77 -20 42 4 56 10
84 41 40 43 43 88 10 136 -39 58 -79 74 -192 77 -55 1 -113 -2 -130 -8z"/>
</g>
</svg>
