<svg xmlns="http://www.w3.org/2000/svg" width="1365.333" height="1365.333" viewBox="0 0 1024 1024"><path d="M213 406.4c-7.7 1.7-15.4 4.6-23.2 8.9-5.7 3.1-6.4 4-5.2 7.1.8 2.2 1.5 2 7.3-1.5 14.3-8.9 36-12.1 55.3-8.1 10.1 2.1 25.7 8.1 24.8 9.6-.3.4-5.4.8-11.5.7-8.2-.1-13 .3-19 1.9-8.5 2.2-20.6 7.4-26.7 11.6l-3.6 2.5-4.9-2.4c-4.4-2.3-5-2.3-7-1-3.1 2.1-2.9 2.7 1.7 4.8 2.2 1 4 2.1 4 2.4s-2.5 3.1-5.6 6.2c-4.7 4.8-5.4 6-4.9 8.2.4 1.5 1.1 2.7 1.5 2.7.5 0 3.7-2.9 7.3-6.5s7.4-6.5 8.5-6.5c5.1 0 40.2 26.7 40.2 30.6 0 .8 2.3 2.5 5 3.9 4.5 2.3 5 2.9 5 5.8 0 3-9.7 46.7-10.5 47.6-.8.7-15.4-12.1-24.6-21.5-11.5-12-20.1-22.6-28.7-35.8-5.4-8.1-6.3-10.1-5.4-11.5 2.3-3.1 2.4-4.2.6-5.6-1.5-1-2.2-1.1-3.3-.2s-1.6.8-2.5-.7c-3.5-6-7.6-9.1-9-6.8-.3.5.9 3.8 2.6 7.5l3.1 6.6-4.6 9.3c-8.7 17.6-12.2 33.9-11.4 53.2.4 11 1 14.6 3.6 22.6 1.7 5.2 4.4 11.9 6 14.7 1.6 2.9 2.5 5.5 2.1 5.8-.5.3-4.7-3.2-9.3-7.7-8.4-8.2-16-18.7-19.6-27-1.9-4.5-8.6-11.6-9.7-10.5-.4.3.4 3.2 1.6 6.4 11.3 28.3 32.7 49 59.4 57.2 5.2 1.6 7.2 1.8 8.2 1 3.2-2.6.2-5.2-9.4-8-5.1-1.5-10.6-7.4-17-18.4-7-11.9-9.4-20.9-10-36.5-.5-14.7.8-23.9 5.3-36.9 2.6-7.9 7.5-18.1 8.6-18.1.4 0 2.9 3.5 5.7 7.7 6 9.4 18.4 25.1 27.8 35.2 5.1 5.4 24.3 22.3 28.2 24.7.2.1-4.3 20.7-11.3 51.1-2 8.6-4.7 12-10.5 12.9-5.5.9-8.9 3.6-7.4 6.1.9 1.5 2.2 1.7 8.5 1.4 4.1-.2 12.6-.4 18.9-.5l11.5-.1V610c0-2.1-.8-2.7-5.4-4.2-2.9-1-5.9-2.3-6.7-2.9-2.7-2.2-2.9-.7 14.4-76.5 5.3-23.4 7.1-28.8 8-23.9 1.2 6.6 30.3 110 31.3 110.9 1.1 1.2 12.2.8 13-.5.3-.6 2.5-9.4 4.8-19.7 2.4-10.3 5.4-23.2 6.7-28.7s5.5-24 9.5-41c3.9-17.1 7.9-32.9 8.9-35.2 1.5-3.4 2.9-4.7 6.7-6.5s4.9-2.9 5.1-5.1c.2-1.5 0-2.7-.5-2.7-.4-.1-7.8-.1-16.3-.2-13 0-15.6.2-16.4 1.5-1.1 1.7 1.6 5.7 3.9 5.7.7 0 2.4 1.2 3.9 2.6 4.2 4.3 3.6 9.5-6.1 51.4-4.7 20.6-8.8 37.7-9 37.9-.1.2-.5.2-.8-.1-.5-.5-14.6-49.7-25.4-88.3l-2.8-10-13.7-.3-13.8-.3-10.6-9c-5.9-5-15.1-12-20.4-15.7-5.4-3.6-9.8-6.9-9.8-7.2 0-1.5 17.1-9.1 24.9-11.1 7.1-1.8 10.4-2.1 20.5-1.7 10.5.4 13.3.9 20.9 3.8 6.9 2.5 9.7 4.2 13.3 7.9 5.4 5.6 10.6 13.2 14 20.6 1.8 3.9 3.1 5.5 4.5 5.5 3.1 0 3.4-2.7.8-8.3-11.3-24.3-35.2-43.3-63.9-50.8-9.9-2.6-30.9-3.4-40-1.5M678.2 413.2c-.6 2.4-1.6 7.7-2.3 11.8-1.4 8.5-2.2 10.1-3.8 7.1-2.9-5.3-12.8-6.7-20.2-2.8-8.4 4.5-13.9 14.9-13.9 26.5 0 10 4.5 15.2 13 15.2 5.1 0 9.8-2 12.9-5.4 3.3-3.5 4.5-3.3 3.8.9-.5 3.3-.4 3.5 2.2 3.5h2.7l6.2-28.8c3.4-15.8 6.2-29.5 6.2-30.5 0-1.2-.8-1.7-2.9-1.7-2.5 0-3 .5-3.9 4.2m-11.9 20c4.7 2.5 6.2 7.2 4.6 14.8-1.5 6.9-6.1 13.4-11.3 15.9-5.5 2.7-8.9 2.6-12.2-.2-2.4-2.1-2.7-3.1-2.7-8.3.2-9.3 5.7-19.9 11.8-22.4 2.9-1.3 7.3-1.2 9.8.2M868.5 410.2c-.2.7-1.4 6.4-2.6 12.7l-2.2 11.4-2.1-2.5c-3-3.6-5.8-4.8-11.1-4.8-12.5 0-22.5 12.7-22.5 28.6 0 10.7 3.7 15.4 12.3 15.4 5.1 0 11-2.4 14.1-5.9 2.4-2.7 3.7-1.8 2.9 1.9-.5 2.8-.3 3 2.4 3h2.9l2.7-13.8c1.5-7.5 4.3-21.1 6.2-30.2 1.9-9 3.5-16.6 3.5-16.7 0-1-6.1-.1-6.5.9m-10.4 24.7c2.5 2.5 2.9 3.7 2.9 8.3 0 10.4-7.5 20.9-16 22.3-4.8.8-8.5-1.1-10.1-5.3-2.1-5.5 2.1-19.2 7.4-24.3 5.1-4.8 11.5-5.2 15.8-1M711.4 414.5c-2.2 3.3-1.5 5.9 1.8 6.3 1.8.2 3.1-.4 4.2-2 2-2.8 2-3.3 0-5.2-2.2-2.3-4.1-2-6 .9M398.6 415.9c-1.2 1.4-18.6 30.9-28.5 48.3l-3.2 5.8h3.5c3.4 0 3.7-.3 8.2-8.5l4.8-8.5h21.4l1.1 5c.6 2.8 1.1 5.9 1.1 7 0 3.7 1.2 5 4.5 5h3.3l-.9-3.8c-.4-2.1-2.4-13.2-4.4-24.8-2-11.5-3.8-22.1-4.1-23.5-.6-3.3-4.6-4.4-6.8-2m3.3 15.3c.6 4.6 1.4 10 1.7 12l.7 3.8h-8.2c-4.4 0-8.1-.3-8.1-.8-.1-1.1 11.4-23.2 12.1-23.2.3 0 1.1 3.7 1.8 8.2M744 422.1c-1.2 2.2-3.7 4.9-5.6 6.1-4.1 2.4-4.7 5.3-.9 4.6 1.9-.4 2.5-.1 2.5 1.2 0 .9-1.1 7.2-2.5 14-3.1 15.4-3.1 17.5 0 20.5 4.2 4.3 15.5 3.1 15.5-1.6 0-1.7-.4-1.9-3.4-1.4-4.3.9-7.3-.1-8.1-2.4-.4-1.4 1.7-13 5-27.9.5-2 1.1-2.2 6.6-2.2 6.2 0 6.2 0 7.2-4.4.1-.5-2.5-.9-5.8-1-6.5-.1-6.5-.1-5.1-6.4.7-2.8.5-3.2-1.3-3.2-1.4 0-2.7 1.3-4.1 4.1M450.3 428.5c-8.6 3.7-15.3 15.3-15.3 26.3 0 10.8 5.4 16.2 16.3 16.2 6.5 0 11.7-2.1 11.7-4.9s-.9-3-4.8-1.4c-5 2.1-11.1 1.2-13.9-2.2-4.9-5.6-1.7-20.6 5.6-26.8 3.9-3.2 8.9-4.3 13.5-2.7 4 1.3 5.6.7 5.6-2 0-3.7-12.2-5.4-18.7-2.5M499.4 429.4c-6.4 3.3-10.9 9.4-13 17.7-3.8 14.9 1.9 23.9 15.1 23.9 7.4 0 10.9-1.6 11.3-5.2l.3-2.6-5.2 1.5c-10.6 3.1-16.7-1.7-15.6-12.4.6-6.1 5-14.7 8.8-17.6 2.9-2.1 9.2-2.6 14.5-1.3 2.5.6 3.2.5 3.8-1 1.1-3-1.8-4.8-8.6-5.2-5.2-.3-7.2.1-11.4 2.2M558 427.7c-.8.3-3.5 2.4-5.9 4.7l-4.3 4.1.7-4.3c.6-4 .6-4.2-1.9-4.2-1.3 0-2.7.3-3 .8-.2.4-2.1 8.8-4.1 18.7s-3.9 19-4.2 20.3c-.5 2.1-.3 2.3 2.8 2l3.3-.3 2.8-12.2c4-17.9 7.8-23.1 17.5-24.2 5.4-.6 5.8-.8 6.1-3.4s.2-2.7-4-2.6c-2.4 0-5 .3-5.8.6M595.9 429.3c-8.9 4.7-14.5 16.2-13.7 27.9.4 5.2.9 6.3 4.1 9.6 3.3 3.3 4.2 3.6 10.2 4 7.7.5 15-1.7 16-4.9 1-3 .1-3.3-5.1-1.5-8.1 2.8-13.9 1.8-17-2.9-1.7-2.6-2.3-7.9-1.1-9.1.3-.3 4-1 8.1-1.5 16.2-1.8 24-9.5 19.1-18.8-2.7-5.4-13-6.8-20.6-2.8m14.7 5.1c3.5 5.5-2.8 10.9-14.3 12.2-7.3.8-7.6.3-4-6.1 4.5-8 14.8-11.4 18.3-6.1M788.3 429c-4.8 2.5-8.3 6.2-11.6 12.4-3 5.8-3.2 19.8-.2 23.8 2.9 4 7.4 5.8 14.2 5.7 8.2-.1 12.7-1.9 13.1-5.2.4-3.2.8-3.1-5.2-1.1-9.8 3.4-17.6-.3-17.6-8.3 0-2.4.3-4.3.8-4.3 13.8-.9 23.1-4.1 26.2-9.2 2.8-4.6 2.5-8.2-.9-12-2.4-2.7-3.6-3.2-8.7-3.5-4.6-.3-6.8.1-10.1 1.7m13.1 4.3c2.4 1.7 2.4 6.2.1 8.7-3.4 3.8-19.5 6.9-19.5 3.7.1-2.5 4.7-9.2 7.9-11.4 3.8-2.6 8.8-3 11.5-1M706.6 435.2c-.9 4-2.7 12.7-4.1 19.3s-2.8 12.8-3.1 13.7c-.4 1.5.1 1.8 3 1.8 2 0 3.6-.2 3.6-.3 0-.7 8.1-38.2 8.6-40 .4-1.4-.1-1.7-3-1.7h-3.5zM158.3 439.5c-8.4 10.1-16.1 27.1-18.9 41.3-1.8 9.2-1.8 11.2 0 11.2.8 0 1.7 1.1 2 2.5 1.1 4.1 2.2 2.8 2.5-2.8.6-14.1 7-31.5 16.7-45.5 2.4-3.5 4.4-6.6 4.4-7s-.9-1.3-1.9-1.9c-1.7-1.1-2.4-.8-4.8 2.2M548.5 479.2c-1.1.7-6.9 1.5-13 1.8-10.9.5-11 .5-11 3 0 2.1.5 2.5 3.5 2.8 1.9.2 3.8.7 4.3 1.1.7.7-7 28.9-8.4 30.5-.5.6-1.7.2-3-1-1.7-1.5-3.5-1.9-9.3-1.7-32.7.7-69.3 43.4-67.4 78.7.7 13.4 6 20.6 15.2 20.6 9 0 23.8-12.2 38.3-31.5 4.1-5.5 8-10.5 8.5-11 1.3-1.2 1 0-3.6 17.9-4.3 16.4-4.4 19.5-1.3 22.4 6.7 6.3 19.4-.8 30.3-16.8 4.6-6.7 8.6-15 8-16.6-1-2.5-3.1-1.5-5.5 2.9-5.5 9.6-11.9 16.3-13.8 14.3-.4-.3 1.5-8.2 4.1-17.4 2.7-9.2 6.5-22.8 8.6-30.2s7.2-25.7 11.4-40.6 7.6-27.9 7.6-28.8c0-1.9-.8-2-3.5-.4M518 523c2.8 2.8 2.9 7.2.3 15.5-7.4 23.4-37.3 60.5-48.7 60.5-3.2 0-4.9-4.6-4.2-11 1.9-16.5 13.4-39.2 28.4-55.9C503 521.8 513 518 518 523M863 493.5c0 2.2.4 2.5 3.5 2.5h3.5v10c0 10 0 10 2.5 10 2.4 0 2.4-.1 2.7-9.8l.3-9.7 3.8-.3c3.2-.3 3.7-.7 3.7-2.8 0-2.4-.1-2.4-10-2.4h-10zM886 503.5V516h2.5c2.4 0 2.5-.2 2.5-7.6 0-9.3 1.2-9.3 4.8-.1 1.5 3.7 3.1 6.6 3.7 6.4.5-.2 2.3-3.6 3.9-7.5 1.7-4 3.4-7.2 3.9-7.2.4 0 .7 3.5.6 7.7-.2 7.5-.1 7.8 2 7.8 2.2 0 2.2-.3 2.2-12v-12h-3.7c-3.6 0-3.9.2-5.9 5.2-1.1 2.8-2.4 5.5-2.7 5.9-.4.4-1.9-2.1-3.4-5.5-2.6-6-2.7-6.1-6.5-6.1H886zM778.1 502l-8.4.5-3 9.5c-1.6 5.2-3.3 10-3.8 10.6-.5.7-2.4 1.5-4.2 1.8-5.1 1-13.7 5.4-13.7 7 0 2.6 2.1 2.9 8.1 1.1 3.3-1 6.2-1.5 6.6-1.2.6.7-3.1 13-31.6 104.2-2.6 8.2-4.8 13.6-6.1 14.7-1.1.9-4.5 2.2-7.5 2.8-5.5 1.1-8.1 3-7.2 5.2.3 1 6.5 1.3 26.8 1.3l26.4-.1V657c0-2-.7-2.6-4-3.3-8.8-1.8-11.4-2.8-12-4.7-.6-1.8 9.8-35.5 11.6-37.4.5-.6 1.6-.3 2.6.6 5.8 5.1 18.5 4.8 29.7-.5 22.4-10.8 39.8-34.9 42.5-58.9 2.8-25.5-8.3-36.9-34.9-35.6-5.5.3-10 .2-10-.1s.9-3.5 2-7.1 2-6.8 2-7.1c0-1.2-3.3-1.4-11.9-.9m24.4 22.4c4.3 1.8 6.4 5.1 7.5 11.7 3.3 20.5-14.4 62-30.5 71.5-9.2 5.4-19.5 1.2-19.5-8.1 0-1.4 4.1-15.2 9.1-30.8 5-15.5 10.2-31.7 11.5-35.9 2.2-6.8 2.8-7.9 5.2-8.4 1.5-.3 3.2-.7 3.7-.9 2.6-.9 9.9-.4 13 .9M422 515.9c-.5 1.1-1 2.6-1 3.5 0 2.5-1.9 2.8-4.6.7q-9.45-7.5-27.3.9c-23.1 10.9-43.4 36.4-48.1 60.7-1.7 8.8-.9 22 1.6 26.4 2.3 4 7.5 6.9 12.4 6.9s14.4-4.7 21.6-10.8c6-5 19.6-21 24.3-28.5 1.3-2.1 2.5-3.6 2.8-3.3.3.2-1.2 6.9-3.2 14.8-4.4 17-4.9 24-2 26.2 5.2 4 18-.7 26-9.6 6.5-7.2 14.6-20.7 14.3-23.7-.5-4.3-2.5-3.3-6.4 3.1-6.3 10.5-15.4 19-15.4 14.5 0-1.5 5.3-20.6 11.5-41.7 10.1-34.2 11.5-39.4 11.1-40.7-.4-.9-2.9-1.3-8.5-1.3-6.9 0-8.2.3-9.1 1.9m-9.7 9.1c1.4 1.1 2.8 3.3 3.1 4.8 3.5 15.7-34.7 70.2-49.2 70.2-10.8 0-4.7-28.4 11.3-52.5 2.2-3.3 7.1-9.2 10.8-13.2 10.1-10.7 18.2-13.8 24-9.3"/><path d="M716.2 515.3c-.6.6-1.3 2.4-1.7 4-.4 1.5-.9 2.7-1 2.7-.2 0-2.6-1.4-5.4-3.1-4.4-2.8-5.7-3.1-9.9-2.6-13.3 1.6-26.8 9.1-39.8 22.1-17.5 17.5-26.3 37.7-25.2 57.9.6 12.5 5.3 18.7 14.1 18.7 8.1 0 20-7.1 29.7-17.7 5.9-6.5 18.6-22.6 19.3-24.5.2-.7.7-1 1.1-.7.4.4-1.2 7.3-3.4 15.4-4.7 17.1-5.3 22.4-2.6 25.4 4.1 4.5 14.9 1.5 23.5-6.5 8.8-8.1 19.1-24.3 17.8-27.8-1.1-2.8-2.6-1.8-6.4 4.1-7.2 11.5-13.3 17.7-15.4 15.6-.9-.9-1.2.1 12.7-46.8 5.8-19.2 10.2-35.5 9.9-36.2-.6-1.8-15.9-1.8-17.3 0m-9.8 9.8c5.2 4.1 2.9 15.2-6.5 31.9-12.6 22.2-31.9 42.9-40.1 43-8.5 0-7.3-18 2.4-37.3 14.5-28.9 34.1-45.6 44.2-37.6M598.5 516.1c-12.7 4.4-22.3 10.7-31 20.2-11.6 12.7-18.5 29.8-18.5 45.8 0 21 10.5 33 28.9 32.9 13.6-.1 29.4-11.7 39.4-29.1 5.8-10 1.6-12.4-4.8-2.8-12.9 19.6-32.1 25.7-38.9 12.4-2.8-5.5-2.7-18.8.3-31 4.4-17.9 16.8-38.8 25.5-42.9 6.4-3 11.6 1.8 11.6 10.9 0 2.5.8 4.4 2.6 6.2 2.2 2.2 3.2 2.5 7.7 2 4.2-.4 5.6-1 8.4-4.1 4-4.3 4.3-8.8 1-13.6-3.9-5.8-7.9-7.4-19.2-7.7-5.5-.1-11.3.2-13 .8"/></svg>